<?xml version="1.0" encoding="UTF-8" standalone="no"?>
<svg
   xmlns:dc="http://purl.org/dc/elements/1.1/"
   xmlns:cc="http://creativecommons.org/ns#"
   xmlns:rdf="http://www.w3.org/1999/02/22-rdf-syntax-ns#"
   xmlns:svg="http://www.w3.org/2000/svg"
   xmlns="http://www.w3.org/2000/svg"
   xmlns:xlink="http://www.w3.org/1999/xlink"
   xmlns:sodipodi="http://sodipodi.sourceforge.net/DTD/sodipodi-0.dtd"
   xmlns:inkscape="http://www.inkscape.org/namespaces/inkscape"
   width="536"
   height="630"
   viewBox="0 0 536 630"
   version="1.1"
   id="svg248"
   sodipodi:docname="e20310f_changed - Copy.svg"
   inkscape:version="0.92.4 (5da689c313, 2019-01-14)">
  <metadata
     id="metadata252">
    <rdf:RDF>
      <cc:Work
         rdf:about="">
        <dc:format>image/svg+xml</dc:format>
        <dc:type
           rdf:resource="http://purl.org/dc/dcmitype/StillImage" />
        <dc:title />
      </cc:Work>
    </rdf:RDF>
  </metadata>
  <sodipodi:namedview
     pagecolor="#ffffff"
     bordercolor="#666666"
     borderopacity="1"
     objecttolerance="10"
     gridtolerance="10"
     guidetolerance="10"
     inkscape:pageopacity="0"
     inkscape:pageshadow="2"
     inkscape:window-width="1289"
     inkscape:window-height="701"
     id="namedview250"
     showgrid="false"
     inkscape:zoom="0.52976889"
     inkscape:cx="77.036165"
     inkscape:cy="325.30874"
     inkscape:window-x="515"
     inkscape:window-y="103"
     inkscape:window-maximized="0"
     inkscape:current-layer="svg248" />
  <defs
     id="defs126">
    <path
       id="publication-b"
       d="M240,4 L240,256 C240,258.209139 238.209139,260 236,260 L4,260 C1.790861,260 3.16642949e-14,258.209139 0,256 L-2.13162821e-14,72.5912259 C-2.22908679e-14,64.6331283 3.16197523,57.001109 8.79006751,51.374752 L51.394429,8.78352612 C57.0202542,3.15943546 64.6494696,-1.27495648e-14 72.6043615,-1.42108547e-14 L236,0 C238.209139,3.09879411e-14 240,1.790861 240,4 Z" />
    <filter
       id="publication-a"
       width="111.7%"
       height="110.8%"
       x="-5.8%"
       y="-3.8%"
       filterUnits="objectBoundingBox">
      <feOffset
         dy="4"
         in="SourceAlpha"
         result="shadowOffsetOuter1"
         id="feOffset3" />
      <feGaussianBlur
         in="shadowOffsetOuter1"
         result="shadowBlurOuter1"
         stdDeviation="4"
         id="feGaussianBlur5" />
      <feComposite
         in="shadowBlurOuter1"
         in2="SourceAlpha"
         operator="out"
         result="shadowBlurOuter1"
         id="feComposite7" />
      <feColorMatrix
         in="shadowBlurOuter1"
         values="0 0 0 0 0   0 0 0 0 0   0 0 0 0 0  0 0 0 0.18 0"
         id="feColorMatrix9" />
    </filter>
    <linearGradient
       id="publication-c"
       x1="100%"
       x2="0%"
       y1="100%"
       y2="0%">
      <stop
         offset="0%"
         stop-color="#00ADFF"
         stop-opacity=".1"
         id="stop12" />
      <stop
         offset="100%"
         stop-color="#00ADFF"
         stop-opacity=".4"
         id="stop14" />
    </linearGradient>
    <path
       id="publication-d"
       d="M240,4 L240,141 L0,141 L-7.10542736e-15,72.5052482 C-8.08121276e-15,64.5373557 3.16974181,56.8967711 8.81006618,51.2688006 L51.408617,8.76355245 C57.0328057,3.15168232 64.6534527,8.56491821e-15 72.5985509,7.10542736e-15 L236,0 C238.209139,-4.05812251e-16 240,1.790861 240,4 Z" />
    <rect
       id="publication-f"
       width="240"
       height="260"
       rx="4" />
    <filter
       id="publication-e"
       width="111.7%"
       height="110.8%"
       x="-5.8%"
       y="-3.8%"
       filterUnits="objectBoundingBox">
      <feOffset
         dy="4"
         in="SourceAlpha"
         result="shadowOffsetOuter1"
         id="feOffset19" />
      <feGaussianBlur
         in="shadowOffsetOuter1"
         result="shadowBlurOuter1"
         stdDeviation="4"
         id="feGaussianBlur21" />
      <feComposite
         in="shadowBlurOuter1"
         in2="SourceAlpha"
         operator="out"
         result="shadowBlurOuter1"
         id="feComposite23" />
      <feColorMatrix
         in="shadowBlurOuter1"
         values="0 0 0 0 0   0 0 0 0 0   0 0 0 0 0  0 0 0 0.18 0"
         id="feColorMatrix25" />
    </filter>
    <linearGradient
       id="publication-g"
       x1="100%"
       x2="0%"
       y1="100%"
       y2="0%">
      <stop
         offset="0%"
         stop-color="#FD9C9C"
         id="stop28" />
      <stop
         offset="100%"
         stop-color="#DB3727"
         id="stop30" />
    </linearGradient>
    <linearGradient
       id="publication-i"
       x1="0%"
       y1="100%"
       y2="0%">
      <stop
         offset="0%"
         stop-color="#FEF6F6"
         id="stop33" />
      <stop
         offset="100%"
         stop-color="#FD9F9E"
         id="stop35" />
    </linearGradient>
    <path
       id="publication-h"
       d="M4,0 L236,0 C238.209139,-4.05812251e-16 240,1.790861 240,4 L240,141 L0,141 L0,4 C-2.705415e-16,1.790861 1.790861,4.05812251e-16 4,0 Z" />
    <circle
       id="publication-k"
       cx="29.5"
       cy="29.5"
       r="29.5" />
    <filter
       id="publication-j"
       width="127.1%"
       height="133.9%"
       x="-13.6%"
       y="-13.6%"
       filterUnits="objectBoundingBox">
      <feOffset
         in="SourceAlpha"
         result="shadowOffsetOuter1"
         id="feOffset40" />
      <feGaussianBlur
         in="shadowOffsetOuter1"
         result="shadowBlurOuter1"
         stdDeviation="2"
         id="feGaussianBlur42" />
      <feColorMatrix
         in="shadowBlurOuter1"
         result="shadowMatrixOuter1"
         values="0 0 0 0 0   0 0 0 0 0   0 0 0 0 0  0 0 0 0.12 0"
         id="feColorMatrix44" />
      <feOffset
         dy="4"
         in="SourceAlpha"
         result="shadowOffsetOuter2"
         id="feOffset46" />
      <feGaussianBlur
         in="shadowOffsetOuter2"
         result="shadowBlurOuter2"
         stdDeviation="2"
         id="feGaussianBlur48" />
      <feColorMatrix
         in="shadowBlurOuter2"
         result="shadowMatrixOuter2"
         values="0 0 0 0 0   0 0 0 0 0   0 0 0 0 0  0 0 0 0.1 0"
         id="feColorMatrix50" />
      <feMerge
         id="feMerge56">
        <feMergeNode
           in="shadowMatrixOuter1"
           id="feMergeNode52" />
        <feMergeNode
           in="shadowMatrixOuter2"
           id="feMergeNode54" />
      </feMerge>
    </filter>
    <rect
       id="publication-m"
       width="240"
       height="260"
       rx="4" />
    <filter
       id="publication-l"
       width="111.7%"
       height="110.8%"
       x="-5.8%"
       y="-3.8%"
       filterUnits="objectBoundingBox">
      <feOffset
         dy="4"
         in="SourceAlpha"
         result="shadowOffsetOuter1"
         id="feOffset60" />
      <feGaussianBlur
         in="shadowOffsetOuter1"
         result="shadowBlurOuter1"
         stdDeviation="4"
         id="feGaussianBlur62" />
      <feComposite
         in="shadowBlurOuter1"
         in2="SourceAlpha"
         operator="out"
         result="shadowBlurOuter1"
         id="feComposite64" />
      <feColorMatrix
         in="shadowBlurOuter1"
         values="0 0 0 0 0   0 0 0 0 0   0 0 0 0 0  0 0 0 0.18 0"
         id="feColorMatrix66" />
    </filter>
    <linearGradient
       id="publication-n"
       x1="0%"
       y1="100%"
       y2="0%">
      <stop
         offset="0%"
         stop-color="#F1E4FF"
         id="stop69" />
      <stop
         offset="100%"
         stop-color="#9F69F2"
         id="stop71" />
    </linearGradient>
    <path
       id="publication-o"
       d="M4,0 L236,0 C238.209139,-4.05812251e-16 240,1.790861 240,4 L240,141 L0,141 L0,4 C-2.705415e-16,1.790861 1.790861,4.05812251e-16 4,0 Z" />
    <circle
       id="publication-q"
       cx="29.5"
       cy="29.5"
       r="29.5" />
    <filter
       id="publication-p"
       width="127.1%"
       height="133.9%"
       x="-13.6%"
       y="-13.6%"
       filterUnits="objectBoundingBox">
      <feOffset
         in="SourceAlpha"
         result="shadowOffsetOuter1"
         id="feOffset76" />
      <feGaussianBlur
         in="shadowOffsetOuter1"
         result="shadowBlurOuter1"
         stdDeviation="2"
         id="feGaussianBlur78" />
      <feColorMatrix
         in="shadowBlurOuter1"
         result="shadowMatrixOuter1"
         values="0 0 0 0 0   0 0 0 0 0   0 0 0 0 0  0 0 0 0.12 0"
         id="feColorMatrix80" />
      <feOffset
         dy="4"
         in="SourceAlpha"
         result="shadowOffsetOuter2"
         id="feOffset82" />
      <feGaussianBlur
         in="shadowOffsetOuter2"
         result="shadowBlurOuter2"
         stdDeviation="2"
         id="feGaussianBlur84" />
      <feColorMatrix
         in="shadowBlurOuter2"
         result="shadowMatrixOuter2"
         values="0 0 0 0 0   0 0 0 0 0   0 0 0 0 0  0 0 0 0.1 0"
         id="feColorMatrix86" />
      <feMerge
         id="feMerge92">
        <feMergeNode
           in="shadowMatrixOuter1"
           id="feMergeNode88" />
        <feMergeNode
           in="shadowMatrixOuter2"
           id="feMergeNode90" />
      </feMerge>
    </filter>
    <rect
       id="publication-s"
       width="88"
       height="30"
       x="11.103"
       y=".888"
       rx="2" />
    <filter
       id="publication-r"
       width="140.9%"
       height="220%"
       x="-20.5%"
       y="-30%"
       filterUnits="objectBoundingBox">
      <feOffset
         dy="9"
         in="SourceAlpha"
         result="shadowOffsetOuter1"
         id="feOffset96" />
      <feGaussianBlur
         in="shadowOffsetOuter1"
         result="shadowBlurOuter1"
         stdDeviation="4.5"
         id="feGaussianBlur98" />
      <feColorMatrix
         in="shadowBlurOuter1"
         values="0 0 0 0 0   0 0 0 0 0   0 0 0 0 0  0 0 0 0.15 0"
         id="feColorMatrix100" />
    </filter>
    <linearGradient
       id="publication-t"
       x1="66.447%"
       x2="20.012%"
       y1="86.476%"
       y2="34.843%">
      <stop
         offset="0%"
         stop-color="#FDD1B0"
         id="stop103" />
      <stop
         offset="100%"
         stop-color="#E6B18A"
         id="stop105" />
    </linearGradient>
    <linearGradient
       id="publication-u"
       x1="100%"
       x2="50%"
       y1="100%"
       y2="0%">
      <stop
         offset="0%"
         stop-color="#00ADFF"
         id="stop108" />
      <stop
         offset="100%"
         stop-color="#009DE6"
         id="stop110" />
    </linearGradient>
    <linearGradient
       id="publication-x"
       x1="0%"
       y1="0%"
       y2="100%">
      <stop
         offset="0%"
         stop-color="#FF6400"
         id="stop113" />
      <stop
         offset="100%"
         stop-color="#DC001B"
         id="stop115" />
    </linearGradient>
    <path
       id="publication-w"
       d="M-3.33955086e-13,75 L-3.33955086e-13,72.5052482 C-3.31392416e-13,64.5373557 3.16974181,56.8967711 8.81006618,51.2688006 L51.408617,8.76355245 C57.0328057,3.15168232 64.6534527,-1.08674633e-13 72.5985509,-1.10134124e-13 L75,-1.10358936e-13 C66.7157288,-5.53216229e-14 60,6.71572875 60,15 L60,60 L15,60 C6.71572875,60 4.18205683e-13,66.7157288 4.19220214e-13,75 Z" />
    <filter
       id="publication-v"
       width="121.3%"
       height="121.3%"
       x="-10.7%"
       y="-5.3%"
       filterUnits="objectBoundingBox">
      <feOffset
         dy="4"
         in="SourceAlpha"
         result="shadowOffsetOuter1"
         id="feOffset119" />
      <feGaussianBlur
         in="shadowOffsetOuter1"
         result="shadowBlurOuter1"
         stdDeviation="2"
         id="feGaussianBlur121" />
      <feColorMatrix
         in="shadowBlurOuter1"
         values="0 0 0 0 0   0 0 0 0 0   0 0 0 0 0  0 0 0 0.15 0"
         id="feColorMatrix123" />
    </filter>
    <linearGradient
       id="linearGradient4561">
      <stop
         style="stop-color:#de5644;stop-opacity:1"
         id="stop4563"
         offset="0" />
      <stop
         style="stop-color:#da4531;stop-opacity:1"
         offset="0.5"
         id="stop4569" />
      <stop
         style="stop-color:#ce3a28;stop-opacity:1"
         id="stop4565"
         offset="1" />
    </linearGradient>
    <linearGradient
       id="linearGradient4551">
      <stop
         style="stop-color:#0aa561;stop-opacity:1"
         id="stop4553"
         offset="0" />
      <stop
         style="stop-color:#009b58;stop-opacity:1"
         offset="0.5"
         id="stop4559" />
      <stop
         style="stop-color:#00914b;stop-opacity:1"
         id="stop4555"
         offset="1" />
    </linearGradient>
    <linearGradient
       id="linearGradient4535">
      <stop
         style="stop-color:#1a6fef;stop-opacity:1"
         id="stop4537"
         offset="0" />
      <stop
         style="stop-color:#1e72ef;stop-opacity:1"
         offset="0.25"
         id="stop4547" />
      <stop
         style="stop-color:#166bec;stop-opacity:1"
         offset="0.5"
         id="stop4545" />
      <stop
         style="stop-color:#1267e9;stop-opacity:1"
         offset="0.75"
         id="stop4543" />
      <stop
         style="stop-color:#1063e5;stop-opacity:0.87"
         id="stop4539"
         offset="1" />
    </linearGradient>
    <linearGradient
       id="linearGradient4525">
      <stop
         style="stop-color:#ffc01a;stop-opacity:1"
         id="stop4527"
         offset="0" />
      <stop
         style="stop-color:#ffba03;stop-opacity:1"
         offset="0.5"
         id="stop4533" />
      <stop
         style="stop-color:#ffb300;stop-opacity:1"
         id="stop4529"
         offset="1" />
    </linearGradient>
    <linearGradient
       id="linearGradient4511">
      <stop
         style="stop-color:#de5744;stop-opacity:1"
         id="stop4513"
         offset="0" />
      <stop
         style="stop-color:#db4632;stop-opacity:1"
         offset="0.5"
         id="stop4523" />
      <stop
         style="stop-color:#d13d29;stop-opacity:1"
         id="stop4515"
         offset="1" />
    </linearGradient>
    <linearGradient
       id="linearGradient4501">
      <stop
         style="stop-color:#196eef;stop-opacity:1"
         id="stop4503"
         offset="0" />
      <stop
         style="stop-color:#186dee;stop-opacity:1"
         offset="0.5"
         id="stop4509" />
      <stop
         style="stop-color:#1065e7;stop-opacity:1"
         id="stop4505"
         offset="1" />
    </linearGradient>
    <linearGradient
       gradientTransform="matrix(1.35086,0,0,1.35086,1626.5564,-1095.5023)"
       gradientUnits="userSpaceOnUse"
       y2="3070.15"
       x2="-4561.09"
       y1="2932"
       x1="-4561.09"
       id="linearGradient4507"
       xlink:href="#linearGradient4501" />
    <linearGradient
       gradientTransform="matrix(1.35086,0,0,1.35086,1626.5564,-1095.5023)"
       gradientUnits="userSpaceOnUse"
       y2="3068.3"
       x2="-4444.64"
       y1="2978.97"
       x1="-4444.64"
       id="linearGradient4517"
       xlink:href="#linearGradient4511" />
    <linearGradient
       gradientTransform="matrix(1.35086,0,0,1.35086,1626.5564,-1095.5023)"
       gradientUnits="userSpaceOnUse"
       y2="3068.11"
       x2="-4342.5"
       y1="2979.15"
       x1="-4342.5"
       id="linearGradient4531"
       xlink:href="#linearGradient4525" />
    <linearGradient
       gradientTransform="matrix(1.35086,0,0,1.35086,1626.5564,-1095.5023)"
       gradientUnits="userSpaceOnUse"
       y2="3122.4"
       x2="-4248.93"
       y1="2978.97"
       x1="-4248.93"
       id="linearGradient4541"
       xlink:href="#linearGradient4535" />
    <linearGradient
       gradientTransform="matrix(1.35086,0,0,1.35086,1626.5564,-1095.5023)"
       gradientUnits="userSpaceOnUse"
       y2="3065.79"
       x2="-4184.29"
       y1="2934.51"
       x1="-4184.29"
       id="linearGradient4557"
       xlink:href="#linearGradient4551" />
    <linearGradient
       gradientTransform="matrix(1.35086,0,0,1.35086,1626.5564,-1095.5023)"
       gradientUnits="userSpaceOnUse"
       y2="3068.11"
       x2="-4118.39"
       y1="2978.97"
       x1="-4118.39"
       id="linearGradient4567"
       xlink:href="#linearGradient4561" />
    <style
       id="style10">.e8164dac-e359-4662-b6b8-2841dea30526{fill:none;}.ba6cca05-dfc5-41c5-843f-c63555d93f16{fill:red;}</style>
    <clipPath
       id="clipPath18">
      <path
         id="path20"
         inkscape:connector-curvature="0"
         d="m 0,0 4123,0 0,1058.69 -4123,0 L 0,0 z" />
    </clipPath>
  </defs>
  <g
     transform="matrix(0.70113011,0,0,0.70113011,3253.1725,-2007.7656)"
     id="layer1">
    <path
       id="path4423"
       d="m -4520.08,2990.41 h 32.21 v 45.24 c -10.05,3.23 -22.74,5 -35.93,5 -53.46,0 -84.88,-45.78 -84.88,-90.49 0,-43.85 28.42,-74.61 68.07,-74.61 25.09,0 39.69,8.5 52.75,20.34 v 14.76 l 24.49,-24.49 c -15.49,-10.48 -37.92,-20.44 -69.98,-20.44 -70.38,0 -102.55,50.35 -102.55,91.73 0,58.9 42.9,94.38 96.81,94.38 26.14,0 49.35,-3.99 76.16,-11.45 v -46.74 c 0,-2.39 1.05,-4.03 2.62,-5.47 l 8.46,-8.46 h -57.45 z"
       inkscape:connector-curvature="0"
       style="fill:url(#linearGradient4507)" />
    <path
       id="path4425"
       d="m -4375.79,2928.93 c -40.51,0 -65.61,29.6 -65.61,61.02 0,27.12 20.22,59.32 61.19,59.32 39.41,0 63.59,-29.66 63.59,-61.63 0,-29.78 -23.63,-58.7 -59.17,-58.7 z m -6.72,8.63 c 28.56,0 41.28,37.21 41.28,63.75 0,39.47 -29.61,40.25 -33.15,40.25 -13.55,0 -23.02,-8.19 -30.11,-18.93 -6.24,-9.9 -12.34,-28.29 -12.34,-46.26 0,-17.9 5.86,-26.64 15.08,-33.07 7.54,-4.82 14.6,-5.74 19.23,-5.74 z"
       inkscape:connector-curvature="0"
       style="fill:url(#linearGradient4517)" />
    <path
       id="path4429"
       d="m -4110.98,2928.92 c -35.38,0 -54.52,22.4 -54.52,47.41 0,19.04 13.64,40.52 41.78,40.52 h 7.12 c 0,0 -1.94,4.71 -1.95,9.26 0,6.71 2.41,10.48 7.53,16.28 -48.42,2.95 -67.88,22.48 -67.88,43.47 0,18.38 17.6,36.47 54.59,36.47 43.79,0 66.47,-24.31 66.47,-48.17 0,-16.82 -8.38,-26.04 -29.6,-41.94 -6.24,-4.85 -7.45,-7.94 -7.45,-11.57 0,-5.2 3.11,-8.64 4.25,-9.94 2.01,-2.12 5.49,-4.54 6.79,-5.7 7.13,-6.04 17.2,-14.98 17.2,-32.82 0,-12.24 -5.09,-22.77 -16.69,-32.63 h 14.16 l 10.64,-10.64 h -52.43 z m -9.76,7.96 c 6.42,0 11.78,2.27 17.44,6.98 6.28,5.66 16.31,20.87 16.31,39.69 0,20.31 -15.78,25.87 -24.32,25.87 -4.18,0 -9.19,-1.17 -13.43,-4.07 -9.42,-6.11 -18.77,-22.37 -18.77,-41.72 0,-17.46 10.4,-26.75 22.77,-26.75 z m 14.01,113.22 c 2.7,0 4.64,0.22 4.64,0.22 0,0 6.37,4.55 10.82,7.95 10.36,8.19 16.82,14.45 16.82,25.6 0,15.33 -14.22,27.35 -37.25,27.35 -25.28,0 -44.6,-11.77 -44.6,-30.99 0,-15.92 13.24,-29.62 49.57,-30.13 z"
       inkscape:connector-curvature="0"
       style="fill:url(#linearGradient4541)" />
    <path
       id="path4433"
       d="m -4050.88,3045.76 h 48.57 l 7.4,-7.4 -13.93,-1.74 c -3.75,-0.46 -5.98,-3.7 -5.98,-6.84 v -146.71 c 0,-2.89 1.34,-4.37 2.32,-5.31 l 8.76,-8.76 h -41.42 l -10.78,10.78 h 16.1 v 151.97 c 0,2.16 -0.68,3.63 -2.14,5.14 z"
       inkscape:connector-curvature="0"
       style="fill:url(#linearGradient4557)" />
    <path
       id="path4435"
       d="m -3936.5,2928.93 c -27.12,0 -55.93,20.67 -55.93,57.78 0,30.65 20.67,62.56 59.29,62.56 9.63,0 17.56,-1.24 24.99,-4.65 7.97,-3.67 15.64,-9.63 21.24,-17.12 -10.57,5.33 -19.19,8.83 -30.64,8.83 -21.76,0 -42.74,-15.7 -50.08,-44.56 l 76.87,-31.07 c -4.44,-15.83 -16.96,-31.77 -45.73,-31.77 z m -5.02,8.49 c 14.55,0 25.07,11.97 25.07,21.34 0,3.03 -1.9,4.63 -5.66,6.11 l -47.25,19.11 c 0,0 -1.28,-5.95 -1.28,-12.38 0,-26.97 19.5,-34.18 29.12,-34.18 z"
       inkscape:connector-curvature="0"
       style="fill:url(#linearGradient4567)" />
    <path
       id="path4439"
       d="m -4238.33,2928.93 c -40.51,0 -65.61,29.6 -65.61,61.02 0,27.12 20.22,59.32 61.19,59.32 39.41,0 63.59,-29.66 63.59,-61.63 0,-29.78 -23.63,-58.7 -59.17,-58.7 z m -6.72,8.63 c 28.56,0 41.28,37.21 41.28,63.75 0,39.47 -29.61,40.25 -33.15,40.25 -13.55,0 -23.02,-8.19 -30.11,-18.93 -6.24,-9.9 -12.34,-28.29 -12.34,-46.26 0,-17.9 5.86,-26.64 15.08,-33.07 7.54,-4.82 14.6,-5.74 19.23,-5.74 z"
       inkscape:connector-curvature="0"
       style="fill:url(#linearGradient4531)" />
  </g>
  <g
     id="g1032"
     transform="translate(180.46278,225.60536)">
    <g
       transform="translate(0,-173.75919)"
       data-name="SAFE ZONE"
       id="d5feac24-3cf4-4e3b-9095-a58e86045d06">
      <path
         style="fill:none"
         inkscape:connector-curvature="0"
         d="M 0,0 V 308.7592 H 537.25978 V 0 Z M 441.5,212.9995 H 95.75979 V 95.7597 H 441.5 Z"
         class="e8164dac-e359-4662-b6b8-2841dea30526"
         data-name="&lt;Составной контур&gt;"
         id="1376c15d-6647-4466-9358-c97b81d2808f" />
    </g>
    <g
       transform="translate(-95.38059,-94.500688)"
       data-name="LOGO"
       id="6c322349-0e2d-45c0-b018-1318df84bbc3">
      <g
         data-name="&lt;Группа&gt;"
         id="467390fb-e479-4223-bbac-f0546cb4ae27">
        <path
           style="fill:#ff0000"
           inkscape:connector-curvature="0"
           d="m 130.35789,168.0717 -20.0044,44.9278 h -14.5937 l 21.9721,-48.044 c -10.3301,-5.247 -17.2168,-14.7573 -17.2168,-32.3022 0,-24.5957 15.5772,-36.8936 34.106,-36.8936 h 18.8564 V 212.9995 H 140.852 V 168.0717 Z M 140.852,106.4179 h -6.72311 c -10.166,0 -20.0044,6.7227 -20.0044,26.2354 0,18.8564 9.0186,24.9233 20.0044,24.9233 h 6.72311 z"
           class="ba6cca05-dfc5-41c5-843f-c63555d93f16"
           data-name="&lt;Составной контур&gt;"
           id="e3e00503-4570-4d4f-9c94-13248eafc32d" />
        <path
           inkscape:connector-curvature="0"
           d="m 214.311,130.3574 v 82.6421 h -12.62591 v -37.0576 h -19.0206 v 37.0576 H 169.875 v -82.6421 h 12.78949 v 35.0898 h 19.0206 v -35.0898 z m 65.75249,98.8755 h -11.4781 v -16.2334 h -35.4179 v 16.2334 h -11.4781 v -26.7276 h 5.0835 c 7.5425,-17.5449 8.3623,-43.125 8.3623,-65.0971 v -7.0508 h 38.3697 v 72.1479 h 6.5586 z m -19.1846,-88.5449 h -14.2656 v 1.4755 c 0,17.3809 -0.8199,42.7969 -7.7066,60.3418 h 21.9722 z m 54.4385,73.4589 c -17.0528,0 -27.5469,-13.6093 -27.5469,-39.0244 0,-26.5639 7.3789,-45.9126 24.9238,-45.9126 13.7735,0 22.792,10.3301 22.792,38.3697 v 7.0507 h -34.4345 c 0,18.6924 5.247,28.5313 15.413,28.5313 7.2149,0 12.9541,-3.2793 16.2334,-5.5752 l 2.9522,9.8379 a 32.54408,32.54408 0 0 1 -20.333,6.7226 z m -14.1016,-50.0112 h 21.1524 c 0,-14.1016 -2.2959,-24.4316 -9.6739,-24.4316 -7.8711,0 -10.6582,9.6743 -11.4785,24.4316 z m 60.1777,7.7075 v 41.1563 h -12.79 v -82.6421 h 12.79 v 38.2056 l 19.8399,-38.2056 h 12.9541 l -20.4961,38.8618 23.4473,43.7803 h -13.9375 z m 37.3848,-0.164 c 0,-25.9082 10.0029,-42.4693 29.3516,-42.4693 7.3779,0 11.6416,1.9678 15.249,4.2632 l -1.8037,12.1338 c -3.4434,-2.9517 -8.3623,-5.7388 -13.6094,-5.7388 -9.1826,0 -15.7412,10.3301 -15.7412,31.1548 0,20.6602 4.9189,32.4658 15.249,32.4658 a 20.88217,20.88217 0 0 0 13.9375,-5.083 l 2.9512,9.5108 a 25.01753,25.01753 0 0 1 -17.2168,6.2304 c -17.709,0 -28.3672,-14.2646 -28.3672,-42.4677 z"
           data-name="&lt;Составной контур&gt;"
           id="426c2572-ff31-40d1-8641-2ae80a190106" />
      </g>
    </g>
  </g>
  <g
     id="g10"
     transform="matrix(0.78642705,0,0,-0.78642705,29.230065,516.84465)">
    <g
       id="g12"
       transform="scale(0.1)">
      <g
         id="g14">
        <g
           id="g16"
           clip-path="url(#clipPath18)">
          <path
             style="fill:#134785;fill-opacity:1;fill-rule:nonzero;stroke:none"
             id="path22"
             inkscape:connector-curvature="0"
             d="M 4123.26,120.301 C 4123.26,54.1406 4069.13,0 4002.95,0 H 120.309 C 54.1367,0 0,54.1406 0,120.301 v 818.082 c 0,66.167 54.1367,120.307 120.309,120.307 H 4002.95 c 66.18,0 120.31,-54.14 120.31,-120.307 V 120.301" />
          <path
             style="fill:#f89c0e;fill-opacity:1;fill-rule:evenodd;stroke:none"
             id="path24"
             inkscape:connector-curvature="0"
             d="m 746.742,532.777 c -4.277,83.18 -66.027,133.203 -140.586,133.203 h -2.82 c -86.047,0 -133.77,-67.671 -133.77,-144.542 0,-86.059 57.735,-140.434 133.442,-140.434 84.402,0 139.902,61.828 143.922,134.973 z M 603.762,740.41 c 57.5,0 111.566,-25.41 151.25,-65.207 v -0.152 c 0,19.101 12.855,33.508 30.711,33.508 l 4.511,0.023 c 27.914,0 33.649,-26.402 33.649,-34.773 l 0.14,-297.032 c -1.972,-19.453 20.063,-29.492 32.286,-17.011 47.699,49.011 104.75,251.972 -29.653,369.566 C 701.391,838.969 533.316,820.906 443.93,759.285 348.91,693.754 288.102,548.695 347.172,412.449 411.555,263.848 595.797,219.531 705.293,263.758 c 55.453,22.363 81.062,-52.586 23.473,-77.07 C 641.754,149.629 399.57,153.367 286.43,349.336 209.996,481.668 214.059,714.492 416.793,835.125 571.875,927.422 776.348,901.883 899.641,773.113 1028.52,638.488 1021,386.414 895.289,288.426 838.336,243.906 753.746,287.227 754.281,352.109 l -0.586,21.211 c -39.664,-39.355 -92.433,-62.316 -149.933,-62.316 -113.61,0 -213.567,99.941 -213.567,213.547 0,114.734 99.957,215.859 213.567,215.859 v 0" />
          <path
             style="fill:#f89c0e;fill-opacity:1;fill-rule:evenodd;stroke:none"
             id="path26"
             inkscape:connector-curvature="0"
             d="m 2825.18,307.559 c -0.23,-18.399 -19.47,-37.227 -47.36,-37.227 -28.16,0 -45.69,20.535 -45.69,38.73 l 0.05,31.434 c 0.31,18.899 17.82,38.535 46.36,38.535 31.23,0 46.74,-21.054 46.74,-40.84 l -0.1,-30.632" />
          <path
             style="fill:#ffffff;fill-opacity:1;fill-rule:nonzero;stroke:none"
             id="path28"
             inkscape:connector-curvature="0"
             d="m 2355.17,823.086 c 0,-19.387 -19.41,-35.309 -47.32,-35.309 -28.13,0 -45.66,19.258 -45.66,37.422 l 0.02,24.985 c 0.33,18.906 16.85,40.078 45.38,40.078 31.22,0 47.58,-20.254 47.58,-40.078 v -27.098" />
          <path
             style="fill:#f89c0e;fill-opacity:1;fill-rule:nonzero;stroke:none"
             id="path30"
             inkscape:connector-curvature="0"
             d="m 3809.71,786.73 v -20.335 h 14.79 c 3.83,0 6.78,0.941 8.87,2.785 2.03,1.882 3.11,4.441 3.16,7.683 -0.05,3.196 -1.09,5.617 -3.06,7.285 -1.95,1.672 -5.36,2.54 -10.17,2.582 z m -10.03,-51.503 v 58.023 h 25.22 c 7.23,-0.078 12.68,-1.371 16.44,-3.969 3.71,-2.582 5.57,-6.625 5.67,-12.172 0,-3.671 -1.14,-6.679 -3.43,-9.066 -2.24,-2.391 -5.2,-3.961 -8.7,-4.617 v -0.473 c 3.47,-0.703 6.04,-1.988 7.66,-3.902 1.63,-1.938 2.54,-5.281 2.8,-9.949 0.09,-5.696 0.33,-9.153 0.63,-10.34 0.28,-1.242 0.82,-2.387 1.64,-3.535 h -10.1 c -0.98,1.199 -1.55,2.418 -1.83,3.738 -0.28,1.277 -0.42,4.144 -0.42,8.562 -0.12,5.207 -1.1,8.555 -3.08,10.059 -1.97,1.523 -4.79,2.293 -8.53,2.293 h -13.94 v -24.652 h -10.03" />
          <path
             style="fill:#f89c0e;fill-opacity:1;fill-rule:nonzero;stroke:none"
             id="path32"
             inkscape:connector-curvature="0"
             d="m 3822.48,713.129 c -28.18,0 -51.09,22.836 -51.09,51.019 0,28.235 22.91,51.051 51.09,51.051 28.19,0 51.03,-22.816 51.03,-51.051 0,-28.183 -22.84,-51.019 -51.03,-51.019 z m 0.04,111.019 c -33.2,0 -60.15,-26.933 -60.15,-60.16 0,-33.226 26.95,-60.168 60.15,-60.168 33.25,0 60.15,26.942 60.15,60.168 0,33.227 -26.9,60.16 -60.15,60.16" />
          <path
             style="fill:#ffffff;fill-opacity:1;fill-rule:nonzero;stroke:none"
             id="path34"
             inkscape:connector-curvature="0"
             d="m 1514.51,751.641 c -57.1,0.832 -100.82,-32.321 -127.8,-54.375 -29.96,32.074 -68.28,51.66 -107.69,54.105 -41.54,2.574 -80.5,-11.422 -105.27,-31.547 -8.67,20.125 -20.11,31.969 -39.71,31.969 -21.45,0 -44.29,-18.367 -44.29,-48.273 0,-29.903 0.26,-388.071 0.26,-388.071 0,-22.324 19.03,-44.883 46.2,-44.883 29.96,0 46.52,22.891 46.52,45.028 v 287.847 c 0,28.012 47.89,61.176 88.37,60.649 25.87,-0.367 56.61,-25.848 56.61,-66.098 l 0.23,-283.109 c 0,-25 25.19,-44.172 48.03,-44.172 27.16,0 47.73,20.539 47.73,43.918 v 286.086 c 0,35.086 53.26,64.453 89.73,62.566 28.57,-1.519 53.86,-32.652 53.86,-62.566 V 315.027 c 0,-24.715 23.21,-44.316 48.26,-44.316 21.99,0 47.44,14.57 47.44,44.738 v 284.457 c 0.31,104.41 -102.8,153.11 -148.48,151.735" />
          <path
             style="fill:#ffffff;fill-opacity:1;fill-rule:nonzero;stroke:none"
             id="path36"
             inkscape:connector-curvature="0"
             d="m 2308.25,751.898 c -27.87,-0.105 -45.85,-22.945 -45.89,-46.136 l 0.09,-389.883 c -0.19,-25.899 20.3,-45.168 45.63,-45.168 28.88,0 47.34,22.578 47.34,47.18 l 0.2,387.199 c 0,22.926 -23.12,46.902 -47.37,46.808" />
          <path
             style="fill:#ffffff;fill-opacity:1;fill-rule:nonzero;stroke:none"
             id="path38"
             inkscape:connector-curvature="0"
             d="m 1950.39,359.648 c -83.8,0 -151.7,67.879 -151.7,151.629 0,83.754 67.9,151.625 151.7,151.625 83.78,0 151.71,-67.871 151.71,-151.625 0,-83.75 -67.93,-151.629 -151.71,-151.629 z m 196.01,392.145 c -26.18,0.023 -44.7,-20.914 -44.7,-41.332 v -15.922 c -41.3,35.176 -94.81,57.008 -152.61,57.102 -127.14,0.175 -239.74,-106.914 -239.74,-240.911 0,-122.859 107.29,-240.164 239.74,-240.164 53.58,0 111.21,20.586 152.16,55.555 l 0.12,-11.375 c 0,-21.808 17.28,-44.18 45.66,-44.18 32.24,0 46.67,25.762 46.67,46.082 v 391.309 c 0.33,18.391 -19.84,43.801 -47.3,43.836" />
          <path
             style="fill:#ffffff;fill-opacity:1;fill-rule:nonzero;stroke:none"
             id="path40"
             inkscape:connector-curvature="0"
             d="m 2627.48,363.711 c -59.03,0.047 -111.66,45.449 -111.66,112.363 l 0.07,370.656 c -0.07,25.602 -20.96,43.532 -46.5,43.532 -29.68,-0.106 -46.79,-21.934 -46.79,-43.532 V 475.703 c -0.35,-115.117 94.87,-205.371 203.23,-205.371 32.19,0 47.7,26.082 47.7,48.223 0,21.093 -16.63,45.156 -46.05,45.156" />
          <path
             style="fill:#f89c0e;fill-opacity:1;fill-rule:evenodd;stroke:none"
             id="path42"
             inkscape:connector-curvature="0"
             d="M 3129.87,751.973 C 3000,751.414 2889.23,636.961 2889.87,510.984 V 314.629 c 0,-25.567 20.92,-44.297 42.98,-44.297 26.25,0 46.62,19.363 46.62,42.957 v 199.348 c -0.07,71.375 62.28,150.148 149.84,149.726 28.48,-0.109 47.21,21.496 47.04,45.43 -0.1,19.105 -13.82,44.297 -46.48,44.18" />
          <path
             style="fill:#f89c0e;fill-opacity:1;fill-rule:evenodd;stroke:none"
             id="path44"
             inkscape:connector-curvature="0"
             d="m 3669.25,751.973 c -27.61,0 -45.4,-22.633 -45.4,-43.489 l 0.02,-197.605 c 0,-76.25 -64.24,-150.734 -153.54,-150.734 -73.01,0 -150.36,63.351 -150.36,149.335 v 197.942 c 0,20.754 -15.58,44.551 -46.51,44.551 -21.82,0 -44.13,-18.321 -44.13,-43.684 V 511.023 c 0,-127.761 114.15,-240.242 240.71,-240.242 138.17,0 244.2,118.446 244.2,239.649 v 197.937 c 0,22.199 -18.3,43.606 -44.99,43.606" />
        </g>
      </g>
    </g>
  </g>
</svg>
