<?xml version="1.0" standalone="no"?>
<!DOCTYPE svg PUBLIC "-//W3C//DTD SVG 20010904//EN"
 "http://www.w3.org/TR/2001/REC-SVG-20010904/DTD/svg10.dtd">
<svg version="1.0" xmlns="http://www.w3.org/2000/svg"
 width="977.000000pt" height="325.000000pt" viewBox="0 0 977.000000 325.000000"
 preserveAspectRatio="xMidYMid meet">
<metadata>
Created by potrace 1.15, written by Peter Selinger 2001-2017
</metadata>
<g transform="translate(0.000000,325.000000) scale(0.100000,-0.100000)"
fill="#000000" stroke="none">
<path d="M2725 3234 c-176 -44 -346 -169 -455 -335 -369 -560 -184 -1563 395
-2143 244 -246 496 -372 765 -383 129 -5 208 6 308 44 47 17 47 20 31 109 -18
101 -11 96 -82 67 -70 -29 -174 -53 -229 -53 l-38 0 1 413 c0 226 4 420 8 431
6 14 35 -29 134 -194 70 -117 127 -209 127 -204 0 22 -59 354 -70 394 -7 24
-23 66 -36 92 -18 35 -20 46 -9 42 11 -5 15 1 15 22 0 43 -16 62 -24 30 -4
-15 -23 -45 -44 -68 -99 -110 -246 -104 -379 16 l-51 46 -55 -102 c-29 -57
-110 -210 -178 -340 -68 -131 -126 -238 -129 -238 -9 0 -137 151 -177 210 -69
99 -116 181 -107 190 5 4 142 78 304 165 162 87 298 159 302 162 4 2 -3 23
-16 47 -13 24 -28 58 -35 76 -10 31 -12 32 -33 18 -187 -122 -561 -360 -572
-364 -17 -7 -84 157 -121 298 -28 107 -59 277 -51 285 4 4 634 -144 740 -174
15 -4 17 -1 12 24 -4 15 -8 57 -11 93 l-4 65 -373 60 -373 60 2 110 c2 110 37
315 54 315 5 0 163 -122 351 -270 l342 -271 13 52 c34 133 136 211 250 194 25
-3 73 -21 107 -39 35 -18 76 -36 92 -39 16 -3 36 -8 46 -12 17 -7 20 1 158
442 l41 132 46 -52 c25 -29 49 -56 53 -60 4 -4 24 18 44 49 33 49 36 58 24 72
-221 265 -453 431 -701 503 -96 28 -324 36 -412 13z m339 -165 c5 -6 49 -716
44 -728 -3 -8 -421 638 -433 671 -6 16 50 38 145 58 42 8 236 8 244 -1z m219
-73 c90 -40 277 -166 277 -187 0 -10 -204 -498 -224 -537 -11 -20 -21 34 -67
362 -31 212 -52 386 -47 386 4 0 32 -11 61 -24z m-485 -438 c122 -221 220
-404 218 -406 -3 -2 -674 456 -699 478 -11 10 40 112 88 176 40 54 144 154
161 154 5 0 110 -181 232 -402z m448 -1606 c15 -210 25 -385 22 -388 -8 -7
-148 41 -211 72 -29 15 -91 54 -139 86 l-88 60 23 37 c12 20 96 155 187 300
139 221 166 259 171 239 4 -13 20 -195 35 -406z"/>
<path d="M3250 2942 c0 -34 3 -38 65 -87 27 -22 80 -69 118 -104 37 -35 69
-62 70 -60 1 2 10 20 19 40 16 36 16 37 -10 61 -45 42 -133 104 -199 142 l-63
35 0 -27z"/>
<path d="M2540 3216 c-309 -114 -525 -396 -611 -797 -19 -88 -23 -135 -23
-304 -1 -292 -16 -222 297 -1340 l212 -760 266 -3 266 -2 -67 238 -66 239 90
-40 c98 -42 238 -81 326 -90 55 -6 55 -6 -31 23 -551 183 -1015 813 -1125
1531 -24 153 -24 408 0 544 62 350 220 603 464 742 60 34 60 40 2 19z"/>
<path d="M4560 3040 c-93 -11 -144 -26 -235 -70 -282 -136 -485 -474 -536
-893 -18 -150 -7 -403 25 -554 100 -473 358 -852 691 -1013 161 -77 296 -102
435 -81 309 48 552 276 680 636 116 330 115 727 -5 1089 -164 493 -509 836
-895 886 -41 5 -79 9 -85 8 -5 0 -39 -4 -75 -8z m163 -156 c22 -4 37 -12 37
-21 0 -11 -15 -12 -77 -8 -43 4 -98 2 -123 -2 l-45 -9 70 -7 c39 -4 94 -14
123 -22 l52 -16 -1 -287 c0 -158 -3 -304 -7 -324 -7 -38 -8 -36 -209 290
l-203 327 59 28 c94 45 231 66 324 51z m267 -92 c57 -33 140 -93 163 -119 9
-11 15 -27 12 -35 -4 -11 -16 -5 -48 25 -46 43 -193 137 -214 137 -25 0 -15
-60 14 -83 14 -12 63 -57 108 -100 45 -42 85 -74 89 -70 14 14 -19 -58 -112
-242 -50 -101 -92 -173 -95 -165 -5 15 -38 605 -37 672 l0 37 38 -16 c20 -8
57 -27 82 -41z m-592 -390 c89 -176 162 -322 162 -325 0 -4 -131 58 -290 138
l-290 145 41 83 c23 45 55 102 72 127 33 47 126 150 136 150 4 0 79 -143 169
-318z m946 43 c30 -44 63 -99 74 -122 l21 -41 -192 -123 c-105 -67 -194 -124
-197 -126 -3 -3 7 -15 22 -28 16 -13 38 -39 51 -58 l23 -34 163 134 c89 73
166 133 170 133 11 0 58 -158 80 -266 l18 -89 -203 -3 -202 -2 -4 -68 c-2 -37
-3 -68 -3 -69 0 -2 316 24 379 32 l49 6 -6 -153 c-6 -147 -22 -274 -36 -291
-4 -4 -98 71 -209 168 -110 96 -204 175 -207 175 -10 0 -95 -90 -95 -100 0
-19 -64 -82 -103 -102 -32 -16 -54 -19 -105 -16 l-64 4 6 -180 c3 -100 9 -286
12 -414 l6 -233 -43 7 c-101 14 -319 108 -319 136 0 5 60 128 133 276 74 147
149 300 167 341 32 70 33 73 15 84 -10 5 -37 27 -60 48 l-41 38 -149 -360
c-82 -197 -152 -359 -156 -359 -25 0 -240 268 -239 297 1 4 108 90 238 190
130 100 252 195 271 211 l35 29 -23 31 c-12 17 -27 47 -34 67 -7 20 -15 37
-19 38 -3 1 -119 -101 -258 -228 -139 -126 -256 -231 -260 -233 -11 -4 -64
126 -94 233 -29 101 -60 274 -52 283 3 3 150 -1 326 -8 176 -7 322 -11 324 -9
2 2 2 35 -1 73 l-6 68 -191 -6 c-105 -3 -253 -9 -330 -12 l-139 -6 7 108 c10
159 39 324 57 324 5 0 143 -81 306 -180 l298 -180 8 38 c11 58 67 142 114 176
73 51 219 45 265 -11 11 -15 11 -16 -7 -9 -115 45 -228 -39 -254 -189 -35
-198 98 -407 250 -393 44 5 116 38 94 44 -6 1 -27 5 -48 9 -111 18 -202 201
-167 335 14 55 52 115 82 131 21 11 21 10 -3 -17 -35 -39 -48 -65 -58 -121
-18 -93 18 -203 83 -261 113 -99 245 -13 246 159 0 113 -47 204 -128 250 -21
11 -30 18 -21 15 13 -3 36 43 109 222 51 125 102 247 112 272 l19 45 20 -25
c11 -14 44 -61 73 -105z m-52 -1147 c114 -82 210 -153 214 -159 9 -15 -85
-201 -135 -268 -39 -52 -41 -53 -50 -30 -5 13 -64 152 -131 309 -67 157 -124
291 -128 299 -7 19 -13 23 230 -151z m-183 -335 c67 -128 119 -237 116 -243
-3 -5 -36 -27 -73 -49 -64 -38 -158 -73 -229 -85 -29 -5 -33 -3 -33 17 0 12 7
157 15 322 8 165 15 320 15 345 l0 45 33 -60 c19 -33 89 -165 156 -292z"/>
<path d="M5231 2477 c-11 -25 -21 -52 -23 -60 -2 -7 19 -56 47 -109 l49 -95
48 29 c26 16 48 32 48 35 0 13 -75 143 -110 192 l-39 55 -20 -47z"/>
<path d="M5402 2102 l-44 -37 28 -118 28 -117 58 0 c46 0 58 3 58 15 0 53 -64
295 -78 295 -4 0 -26 -17 -50 -38z"/>
<path d="M4722 2099 c-140 -70 -185 -317 -91 -502 28 -54 95 -125 142 -149 79
-40 172 -22 236 46 l24 25 -39 -20 c-58 -30 -137 -23 -195 19 -87 63 -141 181
-141 307 0 133 51 227 146 271 l51 23 -45 0 c-27 1 -62 -8 -88 -20z"/>
<path d="M5464 1693 l-31 -4 0 -147 0 -147 39 -34 c21 -19 41 -32 44 -29 10
10 24 126 31 246 l6 122 -29 -2 c-16 0 -43 -3 -60 -5z"/>
<path d="M5386 1152 c-9 -31 -30 -91 -46 -134 -29 -72 -33 -119 -10 -133 8 -5
78 115 109 185 35 82 35 85 -3 114 l-35 26 -15 -58z"/>
<path d="M765 2948 c-10 -29 -755 -2508 -755 -2513 0 -3 115 -5 255 -5 l254 0
10 38 c5 20 33 137 62 260 l53 222 359 -2 360 -3 61 -255 62 -255 286 -3 287
-2 -17 58 c-9 32 -172 601 -362 1265 l-345 1207 -283 0 c-217 0 -284 -3 -287
-12z m364 -1048 c67 -272 121 -501 121 -507 0 -10 -56 -13 -244 -13 -135 0
-247 3 -249 8 -7 11 237 1022 244 1014 3 -4 61 -230 128 -502z"/>
<path d="M5960 1695 l0 -1265 468 0 c625 0 760 17 901 111 127 85 225 224 277
394 27 85 28 100 28 285 -1 224 -14 294 -84 437 -75 153 -189 249 -358 304
-129 41 -243 56 -476 65 l-196 7 0 248 0 249 445 0 445 0 0 215 0 215 -725 0
-725 0 0 -1265z m862 -116 c64 -14 116 -39 144 -71 112 -122 114 -448 5 -557
-63 -63 -130 -83 -303 -89 l-148 -5 0 367 0 366 125 0 c68 0 148 -5 177 -11z"/>
<path d="M8135 1803 c-192 -637 -363 -1206 -381 -1265 l-32 -108 257 0 257 0
53 225 c29 124 57 241 62 260 l10 35 358 0 359 0 5 -22 c3 -13 31 -130 62
-261 l57 -237 284 0 c156 0 284 3 284 6 0 4 -680 2385 -716 2507 -5 16 -27 17
-288 17 l-282 0 -349 -1157z m711 87 c67 -272 120 -498 117 -502 -2 -5 -114
-8 -249 -8 -192 0 -244 3 -244 13 0 10 209 894 236 997 5 18 8 21 12 10 3 -8
60 -238 128 -510z"/>
<path d="M4070 2836 c-216 -172 -354 -408 -422 -719 -19 -89 -22 -131 -22
-322 l0 -220 102 -595 c56 -327 116 -679 134 -783 l31 -187 264 0 c200 0 263
3 263 12 0 7 -16 106 -36 221 -20 115 -34 210 -32 212 2 3 38 -9 79 -24 148
-58 313 -75 459 -48 l64 12 -104 1 c-134 1 -218 21 -345 84 -124 61 -209 125
-314 235 -192 204 -329 479 -397 800 -38 176 -45 470 -16 641 47 274 154 507
314 680 22 24 39 44 37 44 -2 0 -29 -20 -59 -44z"/>
<path d="M3195 2205 c-5 -2 -22 -6 -38 -9 -42 -10 -102 -70 -128 -129 -31 -68
-33 -214 -5 -297 90 -269 320 -408 471 -285 l30 24 -49 -14 c-141 -43 -297 79
-366 285 -29 85 -25 223 7 285 37 71 106 116 175 114 31 -1 31 -2 -9 -9 -103
-21 -154 -79 -173 -196 -26 -159 80 -375 215 -438 90 -43 186 -25 235 44 18
26 21 38 15 80 -6 45 -9 50 -32 50 -82 0 -185 150 -182 263 1 23 3 34 6 24 3
-11 11 -16 21 -13 47 15 133 -97 131 -168 -1 -27 -2 -25 -9 11 -11 52 -25 80
-58 116 -28 29 -69 36 -78 12 -22 -57 103 -230 162 -223 l29 3 7 150 7 150
-31 32 c-61 63 -142 82 -206 49 -103 -53 -101 -272 4 -394 49 -58 87 -82 142
-92 l47 -8 -39 -1 c-202 -6 -351 366 -201 498 20 17 40 31 46 31 5 0 1 9 -9
20 -10 11 -42 24 -72 30 -29 5 -53 10 -54 9 0 0 -5 -2 -11 -4z"/>
</g>
</svg>
